<svg version="1.1" id="Layer_1" xmlns="http://www.w3.org/2000/svg" xmlns:xlink="http://www.w3.org/1999/xlink" x="0px" y="0px" width="100%px" viewBox="0 0 96 96" enable-background="new 0 0 96 96" xml:space="preserve" height="100px" transform="rotate(0) scale(1, 1)">
<path fill="#ff0000" opacity="1.000000" stroke="none" d="&#10;M97.000000,54.533882 &#10;&#9;C93.484787,57.970699 90.506119,61.665775 85.758766,62.946289 &#10;&#9;C84.346336,63.327267 83.834206,64.762985 83.568825,66.082382 &#10;&#9;C81.325218,77.236710 73.587097,82.478981 63.277782,84.807426 &#10;&#9;C53.498585,87.016144 43.807129,86.778168 34.331940,83.149216 &#10;&#9;C26.602861,80.189026 21.591496,74.742821 19.885605,66.644341 &#10;&#9;C19.353531,64.118393 18.181108,63.112133 15.948180,62.228546 &#10;&#9;C7.337576,58.821266 3.609888,51.033230 5.972470,41.921215 &#10;&#9;C7.832169,34.748726 15.691877,29.612495 23.822395,30.745226 &#10;&#9;C26.285868,31.088432 27.760689,30.592241 29.525934,29.011086 &#10;&#9;C40.895245,18.827448 61.687183,18.698507 73.363335,28.625063 &#10;&#9;C74.852356,29.890963 75.976654,31.364155 78.476006,30.952299 &#10;&#9;C86.365799,29.652187 92.467148,32.565224 96.801056,39.732269 &#10;&#9;C97.000000,44.689255 97.000000,49.378513 97.000000,54.533882 &#10;M65.564148,78.260521 &#10;&#9;C80.205811,72.734367 80.740295,53.948391 71.718399,44.457390 &#10;&#9;C66.725471,39.204845 60.246708,38.514286 54.790257,43.084385 &#10;&#9;C52.313728,45.158619 50.848709,44.937050 48.452404,43.064358 &#10;&#9;C42.524124,38.431442 35.815086,39.377682 30.782049,45.157333 &#10;&#9;C20.160490,57.354523 26.429966,76.192162 42.198166,79.607185 &#10;&#9;C49.863995,81.267418 57.387421,80.883034 65.564148,78.260521 &#10;M76.956085,74.211555 &#10;&#9;C81.954201,68.048615 81.120888,60.786003 80.723885,53.658871 &#10;&#9;C79.387306,29.664421 64.320129,21.477392 44.143665,24.825317 &#10;&#9;C30.560308,27.079235 23.913797,37.075199 22.485043,52.270210 &#10;&#9;C21.352068,64.319588 22.035103,65.628059 24.743528,70.078751 &#10;&#9;C21.836143,60.548630 22.396891,52.241386 27.764555,44.589554 &#10;&#9;C32.912807,37.250496 41.048798,35.259571 48.699299,39.811848 &#10;&#9;C50.843819,41.087898 52.302017,41.227077 54.516438,39.905922 &#10;&#9;C62.637470,35.060787 71.697388,37.598106 76.205536,45.885334 &#10;&#9;C82.153389,56.819145 82.321915,67.346390 73.151970,77.170082 &#10;&#9;C75.013954,76.886955 75.566917,75.544800 76.956085,74.211555 &#10;M84.356003,33.514416 &#10;&#9;C82.568436,33.502167 80.712563,32.994911 79.043068,34.206425 &#10;&#9;C78.753983,36.918350 80.302666,37.517323 82.595589,37.815552 &#10;&#9;C86.305443,38.298080 89.311348,40.075031 90.213043,43.986816 &#10;&#9;C91.223938,48.372364 90.434174,52.344723 86.283768,54.889542 &#10;&#9;C84.243286,56.140659 83.422829,57.513371 84.717659,59.714096 &#10;&#9;C90.784332,58.388863 95.174759,53.526825 95.590759,47.752159 &#10;&#9;C96.037323,41.553211 92.390640,36.697987 84.356003,33.514416 &#10;M20.315655,37.769012 &#10;&#9;C22.437304,37.568699 24.287495,37.078686 24.073189,34.329704 &#10;&#9;C17.343964,32.621021 11.256880,35.643307 8.819190,41.851990 &#10;&#9;C6.284005,48.308990 9.067841,55.839382 15.129314,58.868149 &#10;&#9;C16.460096,59.533108 18.112652,60.520481 19.153250,58.942944 &#10;&#9;C20.378450,57.085556 18.753448,56.171082 17.306206,55.110851 &#10;&#9;C9.731926,49.562019 10.816612,41.668362 20.315655,37.769012 &#10;z"/>
<path fill="#ff0000" opacity="1.000000" stroke="none" d="&#10;M53.819740,66.651550 &#10;&#9;C55.725437,67.930931 54.860382,68.804565 53.572166,69.072861 &#10;&#9;C51.855370,69.430420 49.993141,69.844933 47.956768,68.200157 &#10;&#9;C50.685699,66.950813 51.336121,65.274063 49.169933,63.019348 &#10;&#9;C48.108452,61.914482 47.413937,60.363380 49.029148,59.146954 &#10;&#9;C50.625828,57.944477 52.504177,57.913551 54.087437,59.177166 &#10;&#9;C55.813614,60.554844 55.160919,62.023346 53.903919,63.422440 &#10;&#9;C53.077057,64.342766 51.653904,65.282692 53.819740,66.651550 &#10;z"/>
<path fill="#ff0000" opacity="1.000000" stroke="none" d="&#10;M38.991013,59.155315 &#10;&#9;C36.542015,58.044796 36.270145,56.407143 37.244225,54.545822 &#10;&#9;C37.818256,53.448936 38.939152,52.952015 40.180149,53.220276 &#10;&#9;C41.596149,53.526367 42.566216,54.501957 42.692837,55.931206 &#10;&#9;C42.895664,58.220646 41.560982,59.194546 38.991013,59.155315 &#10;z"/>
<path fill="#ff0000" opacity="1.000000" stroke="none" d="&#10;M61.142494,54.650196 &#10;&#9;C62.935711,52.712368 64.574821,52.811581 66.002533,54.432705 &#10;&#9;C66.951241,55.509949 66.967003,56.847919 66.114540,58.066685 &#10;&#9;C65.374680,59.124470 64.261047,59.419857 63.070309,59.169971 &#10;&#9;C60.692986,58.671066 60.536114,56.965969 61.142494,54.650196 &#10;z"/>
</svg>